<?xml version="1.0" encoding="utf-8"?>
<!-- Generator: Adobe Illustrator 22.1.0, SVG Export Plug-In . SVG Version: 6.00 Build 0)  -->
<svg version="1.1" id="Layer" xmlns="http://www.w3.org/2000/svg" xmlns:xlink="http://www.w3.org/1999/xlink" x="0px" y="0px"
	 viewBox="0 0 512 512" style="enable-background:new 0 0 512 512;" xml:space="preserve">
<style type="text/css">
	.st0{fill:#8E85EE;}
	.st1{fill:#FFFFFF;}
</style>
<rect class="st0" width="512" height="512"/>
<g>
	<path class="st1" d="M244.7,261.9c0,12.2-1.6,23.3-4.8,33.3c-3.2,10-7.9,18.6-14.2,25.7c-6.3,7.1-14.1,12.6-23.5,16.5
		c-9.3,3.9-20.1,5.8-32.3,5.8c-12.8,0-24-1.9-33.4-5.8c-9.4-3.9-17.2-9.4-23.4-16.5c-6.2-7.1-10.8-15.7-13.8-25.8
		c-3-10-4.5-21.2-4.5-33.4c0-12.2,1.5-23.3,4.5-33.3c3-10,7.6-18.5,13.8-25.5c6.2-7.1,14.1-12.5,23.5-16.4
		c9.5-3.9,20.6-5.8,33.5-5.8c12.2,0,23,1.9,32.2,5.8c9.3,3.9,17,9.3,23.3,16.4c6.3,7.1,11.1,15.6,14.2,25.6
		C243.1,238.4,244.7,249.6,244.7,261.9z M118.1,261.9c0,9.9,1,18.7,3.1,26.6c2,7.9,5.2,14.6,9.4,20.1c4.2,5.5,9.6,9.7,16.1,12.6
		c6.5,2.9,14.2,4.4,23.2,4.4c9,0,16.7-1.5,23.2-4.4c6.5-2.9,11.9-7.1,16.1-12.6c4.2-5.5,7.3-12.2,9.3-20.1c2-7.9,3-16.8,3-26.6
		c0-9.9-1-18.8-3-26.7c-2-7.8-5-14.5-9.2-19.9c-4.2-5.4-9.5-9.6-16-12.5c-6.5-2.9-14.2-4.4-23.2-4.4c-9,0-16.7,1.5-23.3,4.4
		c-6.5,2.9-11.9,7.1-16.2,12.5c-4.3,5.4-7.4,12.1-9.5,19.9C119.1,243.1,118.1,251.9,118.1,261.9z"/>
	<polygon class="st1" points="381.2,183.1 381.2,243.3 381.2,269.6 381.2,311.7 297.5,183.1 272.3,183.1 272.3,341.1 292.7,341.1 
		292.7,270.7 292.7,255.4 292.7,212.4 376.4,341.1 401.8,341.1 401.8,183.1 	"/>
</g>
</svg>
