<svg version="1" xmlns="http://www.w3.org/2000/svg" width="933.333" height="933.333" viewBox="0 0 700.000000 700.000000"><path d="M0 350v350h700V0H0v350zm246.5-105.6c16.9 1.3 37 8.7 51.1 19 16.8 12.2 29.6 30.5 37.2 53.2 4.1 12.1 4.5 14.8 4.6 38.4.2 31.4-1.2 39.2-10.6 58.7-5.9 12.3-10 18-21 29.1-7.1 7.2-20 17.2-22.2 17.2-.4 0-3.3 1.2-6.4 2.6-16.1 7.5-27.9 9.7-52.2 9.7-20.7.1-37.4-4.5-54.7-14.9-9.2-5.6-11.7-7.7-20.7-16.9-15-15.3-24.9-35.4-28.9-58.5-1.7-9.8-1.5-41.8.2-50 2.5-11.2 8.6-28.6 12.4-35.5 4.4-7.8 13-19 19.2-24.8 17.4-16.7 37.4-25.4 62.4-27.4 4.2-.3 7.7-.6 7.8-.7.3-.2 14.2.3 21.8.8zm155.6 3.5l7.6.1 48.3 72.7c26.6 40.1 50.6 76.3 53.4 80.5 2.8 4.2 5.2 7.6 5.3 7.4.1-.1.3-34.4.4-76.2 0-41.7.3-77.3.6-79.1.7-4.4 4.1-5.5 17-5.6 14.4-.2 15.9.3 16.6 5 .3 2.1.5 51.4.5 109.5V468l-2.2.1c-10.7.5-35.9 0-36.6-.7-.5-.5-12.3-18.2-26.4-39.4-14-21.2-25.9-39-26.3-39.5-.4-.6-5.1-7.6-10.4-15.5-8-12.1-15-22.6-24.9-37.3-.8-1.2-5.3-8-10-15.2-7.6-11.5-8.5-12.6-8.7-10-.2 1.7-.4 37.5-.5 79.7-.2 42.1-.7 77-1.1 77.5-1 1-32.2 1.1-33.2.1-1.7-1.6-2-18.3-2-103.3.1-92.9.3-109 1.4-113.4.6-2.2 1.4-2.7 5.2-3.1 2.4-.3 7.6-.4 11.4-.3 3.9.1 10.4.2 14.6.2z"/><path d="M227.7 277.6c-.1.1-3.3.4-7.2.8-7.8.7-12.5 1.8-19.3 4.7-20.6 8.9-37 32.1-40 56.9-.8 6.7-.8 28.5.1 36 1.4 12.7 7.7 29.4 14.5 38 8.3 10.6 19.6 18.4 32.7 22.6 16.2 5.3 40.2 3.6 55-3.7 16.7-8.2 31.7-28.8 36-49.6 1.7-8 2.3-36.4 1-44.8-4.7-30.3-26.5-54.8-53-59.5-4.2-.8-19.3-1.8-19.8-1.4z"/></svg>