<?xml version="1.0" standalone="no"?>
<!DOCTYPE svg PUBLIC "-//W3C//DTD SVG 20010904//EN"
 "http://www.w3.org/TR/2001/REC-SVG-20010904/DTD/svg10.dtd">
<svg version="1.0" xmlns="http://www.w3.org/2000/svg"
 width="700.000000pt" height="700.000000pt" viewBox="0 0 700.000000 700.000000"
 preserveAspectRatio="xMidYMid meet">
<metadata>
Created by potrace 1.11, written by Peter Selinger 2001-2013
</metadata>
<g transform="translate(0.000000,700.000000) scale(0.100000,-0.100000)"
fill="#000000" stroke="none">
<path d="M0 3500 l0 -3500 3500 0 3500 0 0 3500 0 3500 -3500 0 -3500 0 0
-3500z m2465 1056 c169 -13 370 -87 511 -190 168 -122 296 -305 372 -532 41
-121 45 -148 46 -384 2 -314 -12 -392 -106 -587 -59 -123 -100 -180 -210 -291
-71 -72 -200 -172 -222 -172 -4 0 -33 -12 -64 -26 -161 -75 -279 -97 -522 -97
-207 -1 -374 45 -547 149 -92 56 -117 77 -207 169 -150 153 -249 354 -289 585
-17 98 -15 418 2 500 25 112 86 286 124 355 44 78 130 190 192 248 174 167
374 254 624 274 42 3 77 6 78 7 3 2 142 -3 218 -8z m1556 -35 l76 -1 483 -727
c266 -401 506 -763 534 -805 28 -42 52 -76 53 -74 1 1 3 344 4 762 0 417 3
773 6 791 7 44 41 55 170 56 144 2 159 -3 166 -50 3 -21 5 -514 5 -1095 l0
-1058 -22 -1 c-107 -5 -359 0 -366 7 -5 5 -123 182 -264 394 -140 212 -259
390 -263 395 -4 6 -51 76 -104 155 -80 121 -150 226 -249 373 -8 12 -53 80
-100 152 -76 115 -85 126 -87 100 -2 -17 -4 -375 -5 -797 -2 -421 -7 -770 -11
-775 -10 -10 -322 -11 -332 -1 -17 16 -20 183 -20 1033 1 929 3 1090 14 1134
6 22 14 27 52 31 24 3 76 4 114 3 39 -1 104 -2 146 -2z"/>
<path d="M2277 4224 c-1 -1 -33 -4 -72 -8 -78 -7 -125 -18 -193 -47 -206 -89
-370 -321 -400 -569 -8 -67 -8 -285 1 -360 14 -127 77 -294 145 -380 83 -106
196 -184 327 -226 162 -53 402 -36 550 37 167 82 317 288 360 496 17 80 23
364 10 448 -47 303 -265 548 -530 595 -42 8 -193 18 -198 14z"/>
</g>
</svg>
