<?xml version="1.0" encoding="utf-8"?>
<!-- Generator: Adobe Illustrator 22.0.1, SVG Export Plug-In . SVG Version: 6.00 Build 0)  -->
<svg version="1.1"
	 id="SVGRoot" inkscape:version="0.92.0 r15299" sodipodi:docname="on.svg" xmlns:cc="http://creativecommons.org/ns#" xmlns:dc="http://purl.org/dc/elements/1.1/" xmlns:inkscape="http://www.inkscape.org/namespaces/inkscape" xmlns:rdf="http://www.w3.org/1999/02/22-rdf-syntax-ns#" xmlns:sodipodi="http://sodipodi.sourceforge.net/DTD/sodipodi-0.dtd" xmlns:svg="http://www.w3.org/2000/svg"
	 xmlns="http://www.w3.org/2000/svg" xmlns:xlink="http://www.w3.org/1999/xlink" x="0px" y="0px" viewBox="0 0 512 512"
	 style="enable-background:new 0 0 512 512;" xml:space="preserve">
<style type="text/css">
	.st0{fill:#FFFFFF;}
	.st1{fill:#8D84ED;}
</style>
<sodipodi:namedview  bordercolor="#666666" borderopacity="1.0" id="base" inkscape:current-layer="layer1" inkscape:cx="482.81557" inkscape:cy="333.2421" inkscape:document-units="px" inkscape:pageopacity="0.0" inkscape:pageshadow="2" inkscape:window-height="1017" inkscape:window-maximized="1" inkscape:window-width="1920" inkscape:window-x="-8" inkscape:window-y="-8" inkscape:zoom="1.4" pagecolor="#ffffff" showgrid="false">
	</sodipodi:namedview>
<g id="layer1" inkscape:groupmode="layer" inkscape:label="圖層 1">
	<rect x="53" y="106" class="st0" width="426" height="323"/>
	<path id="path39" inkscape:connector-curvature="0" class="st1" d="M0,256V0h256h256v256v256H256H0V256z M191,343.4
		c3.6-0.9,10.8-3.7,16-6.2c8.1-3.9,10.8-5.8,18.5-13.7c7.3-7.3,10-10.9,13.7-18.2c7.9-15.5,9.3-21.7,9.2-43.9
		c0-17.7-0.2-19.6-2.8-27.8c-6.9-22.4-19.7-38.2-38.2-47.3c-12.3-6-18.7-7.5-34.6-8.2c-26.7-1-46.2,6-61.7,22
		c-10.7,11.1-16.4,21.9-20.4,38.5c-3.1,12.5-3,34.1,0.1,46.7c7.9,32.1,31.9,54.5,63.6,59.5C162.8,346.3,183.1,345.4,191,343.4
		L191,343.4z M156.1,320.4c-19.4-4.2-33.1-19-37.5-40.7c-2-9.6-2-26.1-0.1-35.3c4.4-20.8,18.8-36.5,37.3-40.4
		c7.3-1.5,21.6-1.4,27.9,0.3c17.3,4.6,29.8,18.1,35,37.6c2.4,9,2.4,31.9-0.1,41c-4,14.5-13.8,27.8-24.9,33.4
		C183.3,321.6,168.8,323.2,156.1,320.4L156.1,320.4z M296.4,341.4c0.3-0.9,0.6-27.5,0.6-59.3l0-57.7l39.2,59l39.2,59h14h14l0.3-79.4
		c0.2-57.8-0.1-79.8-0.9-80.8c-1.7-2.1-21.2-1.9-23.3,0.2c-1.4,1.4-1.6,8.1-1.6,59.2v57.7l-36.4-55c-20-30.2-37.7-56.8-39.3-59
		l-2.9-4l-13.5-0.3c-11.8-0.2-13.6-0.1-14.7,1.4c-1.8,2.4-1.8,157.4-0.1,159.1c0.8,0.8,5.1,1.2,12.9,1.2
		C293.8,343,295.9,342.7,296.4,341.4z"/>
</g>
</svg>
