<?xml version="1.0" standalone="no"?>
<!DOCTYPE svg PUBLIC "-//W3C//DTD SVG 20010904//EN"
 "http://www.w3.org/TR/2001/REC-SVG-20010904/DTD/svg10.dtd">
<svg version="1.0" xmlns="http://www.w3.org/2000/svg"
 width="4096.000000pt" height="4096.000000pt" viewBox="0 0 4096.000000 4096.000000"
 preserveAspectRatio="xMidYMid meet">
<metadata>
Created by potrace 1.11, written by Peter Selinger 2001-2013
</metadata>
<g transform="translate(0.000000,4096.000000) scale(0.100000,-0.100000)"
fill="#000000" stroke="none">
<path d="M0 20480 l0 -20480 20480 0 20480 0 0 20480 0 20480 -20480 0 -20480
0 0 -20480z m14150 6010 c907 -59 1647 -247 2365 -600 893 -439 1596 -1091
2125 -1970 377 -625 682 -1513 824 -2395 136 -849 151 -1849 40 -2741 -138
-1116 -479 -2114 -991 -2899 -522 -799 -1250 -1426 -2123 -1825 -681 -312
-1367 -478 -2235 -542 -218 -16 -929 -16 -1150 0 -968 70 -1680 244 -2380 581
-1122 541 -1941 1405 -2439 2574 -439 1029 -654 2395 -596 3782 71 1696 493
3051 1253 4028 470 603 1009 1039 1722 1392 806 399 1648 590 2775 629 150 5
640 -3 810 -14z m12995 -5313 l3340 -5132 3 5132 2 5133 830 0 830 0 0 -6320
0 -6320 -1021 2 -1022 3 -3341 5138 -3341 5137 -3 -5140 -2 -5140 -820 0 -820
0 0 6320 0 6320 1013 0 1012 0 3340 -5133z"/>
<path d="M13350 25079 c-1596 -63 -2752 -788 -3364 -2109 -289 -621 -452
-1349 -518 -2310 -16 -245 -16 -1059 0 -1295 48 -667 132 -1160 289 -1695 155
-530 402 -1020 719 -1430 103 -133 380 -416 504 -514 554 -438 1184 -687 1966
-776 837 -95 1707 0 2359 257 728 288 1285 768 1690 1456 74 127 219 428 280
582 319 804 481 1971 436 3135 -84 2150 -703 3486 -1946 4200 -431 248 -932
404 -1511 470 -159 18 -589 42 -684 38 -19 -1 -118 -5 -220 -9z"/>
</g>
</svg>
